<?xml version="1.0" encoding="iso-8859-1"?>
<!-- Generator: Adobe Illustrator 18.0.0, SVG Export Plug-In . SVG Version: 6.00 Build 0)  -->
<!DOCTYPE svg PUBLIC "-//W3C//DTD SVG 1.1//EN" "http://www.w3.org/Graphics/SVG/1.1/DTD/svg11.dtd">
<svg version="1.1" id="Capa_1" xmlns="http://www.w3.org/2000/svg" xmlns:xlink="http://www.w3.org/1999/xlink" x="0px" y="0px"
	 viewBox="0 0 497.089 497.089" style="enable-background:new 0 0 497.089 497.089;" xml:space="preserve">
<g id="XMLID_29_">
	<path id="XMLID_34_" d="M283.054,346.514c-14.048-19.419-41.194-23.773-60.616-9.717c-19.417,14.071-23.777,41.202-9.717,60.622
		c14.082,19.429,41.211,23.773,60.633,9.718C292.772,393.074,297.119,365.934,283.054,346.514z"/>
	<path id="XMLID_30_" d="M248.544,0C111.277,0,0,111.277,0,248.544c0,137.268,111.276,248.545,248.544,248.545
		s248.545-111.277,248.545-248.545C497.089,111.277,385.812,0,248.544,0z M75.615,373.711
		c-33.434-46.19-46.87-102.636-37.861-158.938c9.032-56.301,39.434-105.725,85.631-139.15c6.449-4.675,13.17-8.811,19.998-12.693
		c-23.908,40.746-23.122,93.44,6.35,134.163c23.765,32.818,60.729,50.28,98.332,50.656l-0.018,0.12c0,0,64.32-0.754,103.496,57.898
		c0,0,41.177,62.178,2.246,128.341c-32.01,18.233-67.864,27.918-105.052,27.918C180.362,462.027,115.643,429.01,75.615,373.711z
		 M223.74,89.944c17.543-12.693,41.29-10.248,56.089,4.634c1.591,1.595,3.159,3.198,4.522,5.075
		c14.082,19.435,9.717,46.568-9.7,60.631c-3.286,2.373-6.829,4.033-10.439,5.372c-17.818,6.598-38.502,1.057-50.19-15.09
		C199.975,131.156,204.319,104.007,223.74,89.944z"/>
</g>
<g>
</g>
<g>
</g>
<g>
</g>
<g>
</g>
<g>
</g>
<g>
</g>
<g>
</g>
<g>
</g>
<g>
</g>
<g>
</g>
<g>
</g>
<g>
</g>
<g>
</g>
<g>
</g>
<g>
</g>
</svg>
